<svg width="127" height="37" viewBox="0 0 127 37" fill="none" xmlns="http://www.w3.org/2000/svg">
<path d="M26.0909 12C25.7159 10.8523 25.2216 9.82386 24.608 8.91477C24.0057 7.99432 23.2841 7.21023 22.4432 6.5625C21.6136 5.91477 20.6705 5.42045 19.6136 5.07954C18.5568 4.73864 17.3977 4.56818 16.1364 4.56818C14.0682 4.56818 12.1875 5.10227 10.4943 6.17045C8.80114 7.23864 7.45455 8.8125 6.45455 10.892C5.45455 12.9716 4.95455 15.5227 4.95455 18.5455C4.95455 21.5682 5.46023 24.1193 6.47159 26.1989C7.48295 28.2784 8.85227 29.8523 10.5795 30.9205C12.3068 31.9886 14.25 32.5227 16.4091 32.5227C18.4091 32.5227 20.1705 32.0966 21.6932 31.2443C23.2273 30.3807 24.4205 29.1648 25.2727 27.5966C26.1364 26.017 26.5682 24.1591 26.5682 22.0227L27.8636 22.2955H17.3636V18.5455H30.6591V22.2955C30.6591 25.1705 30.0455 27.6705 28.8182 29.7955C27.6023 31.9205 25.9205 33.5682 23.7727 34.7386C21.6364 35.8977 19.1818 36.4773 16.4091 36.4773C13.3182 36.4773 10.6023 35.75 8.26136 34.2955C5.93182 32.8409 4.11364 30.7727 2.80682 28.0909C1.51136 25.4091 0.863636 22.2273 0.863636 18.5455C0.863636 15.7841 1.23295 13.3011 1.97159 11.0966C2.72159 8.88068 3.77841 6.99432 5.14205 5.4375C6.50568 3.88068 8.11932 2.6875 9.98295 1.85795C11.8466 1.02841 13.8977 0.613635 16.1364 0.613635C17.9773 0.613635 19.6932 0.892044 21.2841 1.44886C22.8864 1.99432 24.3125 2.77273 25.5625 3.78409C26.8239 4.78409 27.875 5.98295 28.7159 7.38068C29.5568 8.76705 30.1364 10.3068 30.4545 12H26.0909ZM56.9901 9.81818C56.7855 8.09091 55.956 6.75 54.5014 5.79545C53.0469 4.84091 51.2628 4.36364 49.1491 4.36364C47.6037 4.36364 46.2514 4.61364 45.0923 5.11364C43.9446 5.61364 43.0469 6.30114 42.3991 7.17614C41.7628 8.05114 41.4446 9.04545 41.4446 10.1591C41.4446 11.0909 41.6662 11.892 42.1094 12.5625C42.5639 13.2216 43.1435 13.7727 43.848 14.2159C44.5526 14.6477 45.2912 15.0057 46.0639 15.2898C46.8366 15.5625 47.5469 15.7841 48.1946 15.9545L51.7401 16.9091C52.6491 17.1477 53.6605 17.4773 54.7741 17.8977C55.8991 18.3182 56.973 18.892 57.9957 19.6193C59.0298 20.3352 59.8821 21.2557 60.5526 22.3807C61.223 23.5057 61.5582 24.8864 61.5582 26.5227C61.5582 28.4091 61.0639 30.1136 60.0753 31.6364C59.098 33.1591 57.6662 34.3693 55.7798 35.267C53.9048 36.1648 51.6264 36.6136 48.9446 36.6136C46.4446 36.6136 44.2798 36.2102 42.4503 35.4034C40.6321 34.5966 39.2003 33.4716 38.1548 32.0284C37.1207 30.5852 36.5355 28.9091 36.3991 27H40.7628C40.8764 28.3182 41.3196 29.4091 42.0923 30.2727C42.8764 31.125 43.8651 31.7614 45.0582 32.1818C46.2628 32.5909 47.5582 32.7955 48.9446 32.7955C50.5582 32.7955 52.0071 32.5341 53.2912 32.0114C54.5753 31.4773 55.5923 30.7386 56.3423 29.7955C57.0923 28.8409 57.4673 27.7273 57.4673 26.4545C57.4673 25.2955 57.1435 24.3523 56.4957 23.625C55.848 22.8977 54.9957 22.3068 53.9389 21.8523C52.8821 21.3977 51.7401 21 50.5128 20.6591L46.2173 19.4318C43.4901 18.6477 41.331 17.5284 39.7401 16.0739C38.1491 14.6193 37.3537 12.7159 37.3537 10.3636C37.3537 8.40909 37.8821 6.70454 38.9389 5.25C40.0071 3.78409 41.4389 2.64773 43.2344 1.84091C45.0412 1.02273 47.0582 0.613635 49.2855 0.613635C51.5355 0.613635 53.5355 1.01704 55.2855 1.82386C57.0355 2.61932 58.4219 3.71023 59.4446 5.09659C60.4787 6.48295 61.0241 8.05682 61.081 9.81818H56.9901ZM68.5085 36V1.09091H80.304C83.0313 1.09091 85.2699 1.55682 87.0199 2.48864C88.7699 3.40909 90.0653 4.67614 90.9062 6.28977C91.7472 7.90341 92.1676 9.73864 92.1676 11.7955C92.1676 13.8523 91.7472 15.6761 90.9062 17.267C90.0653 18.858 88.7756 20.108 87.0369 21.017C85.2983 21.9148 83.0767 22.3636 80.3722 22.3636H70.8267V18.5455H80.2358C82.0994 18.5455 83.5994 18.2727 84.7358 17.7273C85.8835 17.1818 86.7131 16.4091 87.2244 15.4091C87.7472 14.3977 88.0085 13.1932 88.0085 11.7955C88.0085 10.3977 87.7472 9.17614 87.2244 8.13068C86.7017 7.08523 85.8665 6.27841 84.7188 5.71023C83.571 5.13068 82.054 4.84091 80.1676 4.84091H72.7358V36H68.5085ZM84.9403 20.3182L93.5312 36H88.6222L80.1676 20.3182H84.9403ZM122.121 1.09091H126.348V24.2045C126.348 26.5909 125.786 28.7216 124.661 30.5966C123.547 32.4602 121.973 33.9318 119.939 35.0114C117.905 36.0795 115.518 36.6136 112.78 36.6136C110.041 36.6136 107.655 36.0795 105.621 35.0114C103.587 33.9318 102.007 32.4602 100.882 30.5966C99.7685 28.7216 99.2116 26.5909 99.2116 24.2045V1.09091H103.439V23.8636C103.439 25.5682 103.814 27.0852 104.564 28.4148C105.314 29.733 106.382 30.7727 107.768 31.5341C109.166 32.2841 110.837 32.6591 112.78 32.6591C114.723 32.6591 116.393 32.2841 117.791 31.5341C119.189 30.7727 120.257 29.733 120.996 28.4148C121.746 27.0852 122.121 25.5682 122.121 23.8636V1.09091Z" fill="white"/>
</svg>
